#!OML:ASF H:\Dans Jumps\Project 1\Capture day 1\Session 1\subject.ASF
:FULLY-SPECIFIED
:DEGREES
328
root 0.772424 17.1294 6.05706 0.404126 -0.200064 -1.94918
lowerback -3.13055 -0.262625 0.318622
upperback -0.259913 -0.390575 1.85477
thorax 1.49919 -0.198394 1.70656
lowerneck -9.27431 -0.541483 -1.22776
upperneck 34.0452 -1.06392 1.56119
head 12.8919 -0.430784 0.679843
rclavicle -1.52816e-015 -1.59028e-014
rhumerus -15.8924 -1.35753 -83.6699
rradius 40.5849
rwrist 31.4174
rhand -26.8868 -27.8164
rfingers 7.12502
rthumb -0.310794 -57.796
lclavicle -1.52816e-015 -1.59028e-014
lhumerus -21.5865 -17.8268 88.6314
lradius 34.7712
lwrist 21.2681
lhand -28.008 -11.4336
lfingers 7.12502
lthumb -1.39363 18.5416
rfemur -16.0646 -3.1697 19.542
rtibia 39.2288
rfoot -19.494 -1.50382
rtoes 8.27027
lfemur -17.0389 10.2385 -17.728
ltibia 39.808
lfoot -16.8693 4.32611
ltoes -8.66699
329
root 0.769112 17.1813 6.0855 0.732393 -0.223046 -1.92008
lowerback -3.11507 -0.282427 0.218185
upperback -0.215518 -0.413504 1.81998
thorax 1.53713 -0.210674 1.72621
lowerneck -9.38051 -0.498327 -1.19496
upperneck 33.828 -0.993436 1.53098
head 12.8201 -0.399429 0.670074
rclavicle 5.31128e-015 5.96354e-015
rhumerus -16.2948 -1.57696 -83.6293
rradius 40.1156
rwrist 31.6593
rhand -26.8636 -27.7176
rfingers 7.12502
rthumb -0.288343 -57.6971
lclavicle 5.31128e-015 5.96354e-015
lhumerus -22.0919 -17.7877 88.7066
lradius 34.2597
lwrist 21.144
lhand -27.9511 -11.3284
lfingers 7.12502
lthumb -1.33871 18.6471
rfemur -15.7937 -2.89057 19.5096
rtibia 38.1458
rfoot -19.0162 -1.49161
rtoes 8.9132
lfemur -16.7373 10.2178 -17.7713
ltibia 38.7337
lfoot -16.4719 4.07644
ltoes -8.25885
330
root 0.766046 17.227 6.11308 1.05639 -0.268346 -1.91534
lowerback -3.09102 -0.298164 0.145504
upperback -0.167448 -0.432053 1.79376
thorax 1.57381 -0.220663 1.7393
lowerneck -9.50434 -0.447441 -1.16217
upperneck 33.6339 -0.913922 1.50614
head 12.7623 -0.363286 0.663805
rclavicle 8.38002e-015 7.95139e-016
rhumerus -16.685 -1.7781 -83.5886
rradius 39.587
rwrist 31.9136
rhand -26.8768 -27.6178
rfingers 7.12502
rthumb -0.301096 -57.5973
lclavicle 8.38002e-015 7.95139e-016
lhumerus -22.5695 -17.7177 88.7775
lradius 33.6962
lwrist 20.9672
lhand -27.8974 -11.1928
lfingers 7.12502
lthumb -1.28679 18.7831
rfemur -15.5481 -2.57649 19.5
rtibia 37.0976
rfoot -18.5833 -1.50063
rtoes 9.68943
lfemur -16.451 10.2192 -17.7933
ltibia 37.7055
lfoot -16.1308 3.88799
ltoes -7.86208
331
root 0.763461 17.2668 6.13969 1.37889 -0.334079 -1.93988
lowerback -3.05968 -0.307827 0.108851
upperback -0.117233 -0.443845 1.77621
thorax 1.60823 -0.227079 1.74137
lowerneck -9.6358 -0.396585 -1.13803
upperneck 33.4496 -0.836343 1.49183
head 12.7107 -0.327703 0.662988
rclavicle 2.80007e-015 -9.93923e-015
rhumerus -17.0738 -1.94983 -83.5449
rradius 39.0178
rwrist 32.1665
rhand -26.9218 -27.5263
rfingers 7.12502
rthumb -0.344527 -57.5058
lclavicle 2.80007e-015 -9.93923e-015
lhumerus -23.0176 -17.6258 88.845
lradius 33.0801
lwrist 20.7226
lhand -27.8428 -11.0203
lfingers 7.12502
lthumb -1.23407 18.9558
rfemur -15.3286 -2.24054 19.5183
rtibia 36.0857
rfoot -18.1989 -1.52845
rtoes 10.5115
lfemur -16.1891 10.2427 -17.7938
ltibia 36.7337
lfoot -15.8445 3.76836
ltoes -7.47481
332
root 0.761129 17.3004 6.1652 1.70071 -0.41775 -1.97957
lowerback -3.0211 -0.311304 0.0899428
upperback -0.0665579 -0.448032 1.76469
thorax 1.63876 -0.229586 1.74006
lowerneck -9.7749 -0.347145 -1.12196
upperneck 33.2759 -0.761926 1.4855
head 12.6656 -0.293456 0.66637
rclavicle 1.38202e-014 -3.20043e-014
rhumerus -17.4579 -2.10448 -83.4935
rradius 38.4047
rwrist 32.4321
rhand -26.9656 -27.4484
rfingers 7.12502
rthumb -0.38684 -57.4278
lclavicle 1.38202e-014 -3.20043e-014
lhumerus -23.4428 -17.4997 88.9118
lradius 32.4239
lwrist 20.3982
lhand -27.7902 -10.8048
lfingers 7.12502
lthumb -1.18328 19.1717
rfemur -15.1381 -1.88894 19.5517
rtibia 35.1196
rfoot -17.8667 -1.58185
rtoes 11.2823
lfemur -15.9613 10.2912 -17.7901
ltibia 35.8274
lfoot -15.6081 3.71917
ltoes -7.10835
333
root 0.759126 17.328 6.18966 2.02068 -0.503929 -2.0378
lowerback -2.97137 -0.311693 0.0952887
upperback -0.017725 -0.448872 1.75819
thorax 1.6609 -0.230215 1.73046
lowerneck -9.92513 -0.301847 -1.11529
upperneck 33.1111 -0.694837 1.48912
head 12.6271 -0.262285 0.67436
rclavicle 2.53978e-014 -2.54444e-014
rhumerus -17.8421 -2.25582 -83.4313
rradius 37.7506
rwrist 32.7296
rhand -26.9797 -27.374
rfingers 7.12502
rthumb -0.400459 -57.3534
lclavicle 2.53978e-014 -2.54444e-014
lhumerus -23.8469 -17.3425 88.978
lradius 31.7323
lwrist 20.0019
lhand -27.7258 -10.5354
lfingers 7.12502
lthumb -1.1211 19.4414
rfemur -14.9739 -1.54797 19.6055
rtibia 34.211
rfoot -17.5924 -1.65691
rtoes 11.9452
lfemur -15.7716 10.358 -17.7792
ltibia 34.9961
lfoot -15.4258 3.73449
ltoes -6.77005
334
root 0.757179 17.3495 6.21262 2.34166 -0.585573 -2.10035
lowerback -2.91038 -0.31176 0.105711
upperback 0.0274759 -0.449317 1.75481
thorax 1.67297 -0.230565 1.72132
lowerneck -10.0898 -0.261413 -1.11014
upperneck 32.9574 -0.633941 1.49055
head 12.5965 -0.234233 0.681072
rclavicle 4.21175e-015 6.16232e-015
rhumerus -18.2149 -2.4248 -83.3574
rradius 37.0467
rwrist 33.0935
rhand -26.9385 -27.3111
rfingers 7.12502
rthumb -0.36073 -57.2906
lclavicle 4.21175e-015 6.16232e-015
lhumerus -24.2311 -17.1328 89.0423
lradius 31.0061
lwrist 19.5165
lhand -27.6444 -10.238
lfingers 7.12502
lthumb -1.04248 19.7392
rfemur -14.8445 -1.23175 19.6676
rtibia 33.3744
rfoot -17.3755 -1.75654
rtoes 12.4334
lfemur -15.6302 10.4421 -17.7752
ltibia 34.2459
lfoot -15.2976 3.79393
ltoes -6.40662
335
root 0.755052 17.3653 6.23407 2.66517 -0.656481 -2.16567
lowerback -2.83802 -0.31217 0.118139
upperback 0.0656308 -0.450065 1.75333
thorax 1.67144 -0.230979 1.71304
lowerneck -10.2585 -0.228847 -1.10844
upperneck 32.8072 -0.584876 1.4951
head 12.5687 -0.21141 0.688067
rclavicle -5.24295e-015 1.31198e-014
rhumerus -18.5849 -2.62501 -83.2695
rradius 36.2984
rwrist 33.5343
rhand -26.8426 -27.2671
rfingers 7.12502
rthumb -0.268046 -57.2467
lclavicle -5.24295e-015 1.31198e-014
lhumerus -24.5986 -16.8602 89.1016
lradius 30.248
lwrist 18.9383
lhand -27.562 -9.95536
lfingers 7.12502
lthumb -0.962846 20.0222
rfemur -14.7518 -0.95493 19.7398
rtibia 32.6183
rfoot -17.2221 -1.88201
rtoes 12.729
lfemur -15.5404 10.5331 -17.7775
ltibia 33.5769
lfoot -15.2215 3.89122
ltoes -6.00411
336
root 0.752715 17.3758 6.25411 2.99223 -0.712925 -2.22879
lowerback -2.75884 -0.314425 0.128249
upperback 0.0988461 -0.453002 1.75076
thorax 1.66109 -0.232452 1.70489
lowerneck -10.4349 -0.203503 -1.10863
upperneck 32.6612 -0.547029 1.50293
head 12.5446 -0.193329 0.695211
rclavicle 2.44754e-015 -1.27222e-014
rhumerus -18.9475 -2.88427 -83.1699
rradius 35.5033
rwrist 34.0801
rhand -26.7043 -27.2228
rfingers 7.12502
rthumb -0.13449 -57.2025
lclavicle 2.44754e-015 -1.27222e-014
lhumerus -24.9364 -16.5155 89.1452
lradius 29.4477
lwrist 18.2693
lhand -27.4458 -9.64262
lfingers 7.12502
lthumb -0.850686 20.3354
rfemur -14.7004 -0.734021 19.8178
rtibia 31.9499
rfoot -17.1327 -2.02244
rtoes 12.8639
lfemur -15.4982 10.6219 -17.789
ltibia 32.9798
lfoot -15.1944 4.02001
ltoes -5.57323
